<svg width="1000" height="200" viewBox="0 0 1000 200" fill="none" xmlns="http://www.w3.org/2000/svg">
<path d="M217.9 32.7526C211.4 40.3526 203 44.5526 194.1 48.1526C193 48.6526 191.5 49.1526 191 47.6526C186.8 36.4526 176.6 36.1526 167.3 34.9526C154.1 33.2526 154 33.5526 151.4 46.4526C141.3 97.1526 131.2 147.853 119.9 198.853C117.5 187.053 115 175.353 112.7 163.553C104.4 122.453 96.1001 81.3526 88.1001 40.2526C87.2001 35.7526 85.8001 33.9526 81.1001 34.3526C74.2001 34.8526 67.4001 35.2526 60.8001 37.4526C57.5001 38.5526 53.6001 39.8526 52.4001 42.9526C49.3001 51.0526 44.7001 47.7526 40.0001 45.3526C33.7001 42.0526 27.5001 38.6526 22.6001 32.2526C37.4001 26.3526 52.6001 24.5526 67.9001 23.1526C77.6001 22.2526 87.5001 22.6526 97.3001 21.6526C105.5 20.7526 111.5 23.1526 115.7 30.2526C118.5 35.0526 121.6 36.3526 124.8 30.5526C129.2 22.6526 135.9 21.2526 144.5 21.6526C165.9 22.4526 187.1 23.6526 207.9 28.9526C211.2 29.6526 214.6 30.1526 217.9 32.7526Z" fill="black"/>
<path d="M582.7 146.353C587.2 133.653 595.9 127.353 607.9 127.353C625.3 127.353 642.7 127.153 660.1 127.453C665.1 127.553 666.2 126.053 666.2 121.253C666.1 108.253 666.3 108.253 653.1 108.253C631.8 108.253 610.4 108.053 589.1 108.453C583.4 108.553 582.2 106.853 582.3 101.453C582.7 87.4527 582.6 73.4527 582.3 59.5527C582.2 54.9527 583.1 53.2527 588.2 53.2527C618.1 53.5527 648 53.4527 678 53.2527C683.6 53.2527 683.9 55.0527 681.2 59.0527C676 66.8527 669.4 71.8527 659.5 71.6527C642.1 71.4527 624.7 71.8527 607.3 71.4527C601.8 71.3527 599.6 72.7527 600.5 78.3527C600.8 80.2527 600.8 82.2527 600.5 84.2527C599.8 88.8527 601.8 90.0527 606.2 89.9527C630 89.7527 653.8 89.9527 677.6 89.7527C682.5 89.7527 684.4 90.6527 684.3 96.0527C683.9 111.053 684.2 125.953 684.2 140.953C684.2 143.553 684.9 146.353 680.5 146.353C648.1 146.253 615.7 146.353 582.7 146.353Z" fill="black"/>
<path d="M329 109.353C329 119.653 328.7 129.953 329.1 140.253C329.3 145.053 328 146.553 323 146.453C310.4 146.253 310.4 146.553 310.4 133.653C310.4 115.553 310.2 97.3527 310.5 79.2527C310.6 73.7527 309.5 71.2527 303.3 71.7527C297 72.3527 290.6 71.8527 284.2 71.8527C273.6 71.8527 267.2 65.6527 262.2 57.1527C260.4 54.1527 261.1 52.8527 264.8 52.8527C301.3 52.9527 337.8 52.9527 374.4 52.8527C378.3 52.8527 378.4 54.2527 377.2 57.2527C373.9 64.9527 363.8 71.7527 355.1 71.8527C348.7 71.8527 342.3 72.3527 336 71.7527C329.8 71.1527 328.7 73.7527 328.9 79.2527C329.3 89.2527 329 99.3527 329 109.353Z" fill="black"/>
<path d="M937.6 89.4526C952.6 89.4526 967.5 89.6526 982.4 89.3526C987.5 89.2526 988.5 90.8526 988.4 95.5526C988.1 110.453 988.2 125.453 988.4 140.353C988.5 144.253 987.7 145.853 983.3 145.953C970.2 146.153 970.2 146.353 970.2 133.053C970.2 126.153 970.1 119.353 970.3 112.453C970.4 109.353 969.5 108.253 966.2 108.253C947.1 108.353 928 108.453 908.9 108.253C905.4 108.253 905 109.853 905 112.653C905.1 121.953 904.8 131.253 905.1 140.553C905.2 144.753 903.9 145.853 899.8 145.953C887 146.053 887 146.253 887 133.553C887 120.853 887.2 108.053 886.9 95.3526C886.8 90.7526 887.9 89.0526 892.9 89.2526C907.8 89.6526 922.8 89.3526 937.7 89.3526C937.6 89.3526 937.6 89.4526 937.6 89.4526Z" fill="black"/>
<path d="M735.7 99.1526C735.7 85.8526 735.9 72.6526 735.6 59.3526C735.5 54.5526 736.8 53.1526 741.6 53.2526C753.8 53.4526 753.7 53.1526 753.7 65.6526C753.6 84.3526 753.8 102.953 753.5 121.653C753.4 126.153 754.7 127.453 759.2 127.453C782 127.253 804.9 127.553 827.7 127.253C834.1 127.153 834.2 129.353 831.4 133.853C826.9 141.153 821.3 145.853 811.9 145.653C788.3 145.153 764.8 145.253 741.2 145.453C736.6 145.453 735.4 144.253 735.5 139.753C735.9 126.153 735.7 112.653 735.7 99.1526Z" fill="black"/>
<path d="M10 15.6526C37.6 6.85264 64.3 3.55264 91.3 2.65264C130.3 1.35264 169.4 1.25263 207.8 9.55263C213.1 10.6526 218.4 11.8526 223.5 13.5526C225.4 14.1526 230.4 13.1526 228.3 17.3526C227 20.1526 225.9 25.1526 219.9 23.1526C208.2 19.3526 196.2 16.7526 184 15.2526C129.3 8.65262 74.8 8.15264 21.2 23.0526C14 25.1526 14.5 18.5526 10 15.6526Z" fill="black"/>
<path d="M476.8 89.5526C492.7 89.5526 508.6 89.7526 524.5 89.4526C530.9 89.3526 530.4 91.7526 527.8 95.6526C522.4 103.453 515.6 108.653 505.4 108.453C485.8 108.153 466.2 108.353 446.6 108.353C436.1 108.353 429.5 102.353 424.5 93.8526C422.2 89.9526 424.1 89.4526 427.6 89.4526C444 89.5526 460.4 89.5526 476.8 89.5526Z" fill="black"/>
<path d="M423.7 128.053C425.4 126.753 427.4 127.453 429.3 127.453C460.7 127.453 492.1 127.353 523.6 127.453C525.6 127.453 528.4 126.053 529.5 128.553C530.4 130.653 528.5 132.753 527.2 134.453C521.6 141.753 514.8 146.453 504.9 146.253C485.5 145.853 466.1 146.153 446.7 146.153C436.1 146.053 426.7 138.553 423.7 128.053Z" fill="black"/>
<path d="M423.6 53.8526C425.1 53.7526 426.5 53.5526 427.8 53.5526C459.9 53.5526 492 53.5526 524.1 53.5526C525.9 53.5526 528.3 52.3527 529.3 54.6527C530.2 56.6527 528.5 58.4526 527.4 59.9526C522 67.3526 515.4 72.4526 505.4 72.2526C485.8 71.9526 466.2 72.2527 446.6 72.1527C436.1 72.1527 426.9 64.8526 423.6 53.8526Z" fill="black"/>
<path d="M990 54.2526C986.4 65.1526 977.8 71.7526 966.8 71.7526C947 71.7526 927.1 71.6526 907.3 71.7526C897.1 71.7526 890.5 66.2526 885.2 58.3526C883.5 55.7526 882.6 53.3526 887.5 53.4526C921.3 53.5526 955.1 53.5526 988.8 53.6526C989.2 53.5526 989.6 53.9526 990 54.2526Z" fill="black"/>
</svg>
